<?xml version="1.0" encoding="UTF-8"?> <svg xmlns="http://www.w3.org/2000/svg" width="794" height="291" viewBox="0 0 794 291" fill="none"> <path d="M337.784 252.568C339.72 252.568 341.275 252.187 342.448 251.424C343.68 250.603 344.619 249.341 345.264 247.64C345.909 245.939 346.32 243.768 346.496 241.128C346.731 238.429 346.848 235.203 346.848 231.448V206.28H403.608V267H387.24V219.568H362.16V231.448C362.16 238.019 361.837 243.563 361.192 248.08C360.605 252.597 359.491 256.264 357.848 259.08C356.264 261.896 354.064 263.92 351.248 265.152C348.432 266.384 344.824 267 340.424 267H335.672V252.568H337.784ZM470.603 206.28V218.864H431.619V229.952H461.275V242.008H431.619V254.416H470.867V267H415.251V206.28H470.603ZM475.277 219.568V206.28H540.837V219.568H516.197V267H499.829V219.568H475.277ZM601.641 233.296C601.641 227.488 599.852 223.44 596.273 221.152C592.753 218.864 587.473 217.72 580.433 217.72C573.393 217.72 568.084 218.864 564.505 221.152C560.926 223.44 559.137 227.488 559.137 233.296V239.72C559.137 242.771 559.577 245.323 560.457 247.376C561.396 249.371 562.745 250.984 564.505 252.216C566.265 253.448 568.465 254.328 571.105 254.856C573.804 255.325 576.913 255.56 580.433 255.56C583.953 255.56 587.033 255.325 589.673 254.856C592.313 254.328 594.513 253.477 596.273 252.304C598.092 251.072 599.441 249.459 600.321 247.464C601.201 245.411 601.641 242.829 601.641 239.72V233.296ZM542.593 236.288C542.593 230.421 543.414 225.493 545.057 221.504C546.7 217.456 549.134 214.229 552.361 211.824C555.588 209.419 559.548 207.688 564.241 206.632C568.934 205.576 574.332 205.048 580.433 205.048C586.534 205.048 591.932 205.576 596.625 206.632C601.318 207.688 605.278 209.419 608.505 211.824C611.732 214.229 614.166 217.456 615.809 221.504C617.452 225.493 618.273 230.421 618.273 236.288C618.273 242.331 617.452 247.405 615.809 251.512C614.166 255.56 611.732 258.845 608.505 261.368C605.278 263.832 601.318 265.592 596.625 266.648C591.932 267.704 586.534 268.232 580.433 268.232C574.332 268.232 568.934 267.704 564.241 266.648C559.548 265.592 555.588 263.832 552.361 261.368C549.134 258.845 546.7 255.56 545.057 251.512C543.414 247.405 542.593 242.331 542.593 236.288Z" fill="#FF0032"></path> <path d="M170.18 266.67H48.97L0 0H121.21L170.18 266.67Z" fill="#FF0032"></path> <path d="M194.67 133.34L170.18 266.67L291.39 266.67L315.88 133.34H194.67Z" fill="#FF0032"></path> <path d="M355.33 147.091V193.871H340.41V133.311H366.13L381.14 178.511L396.23 133.311H421.07V193.871H404.75V146.911L388.95 193.871H371.13L355.33 147.091Z" fill="#FF0032"></path> <path d="M425.25 146.561V133.311H490.64V146.561H466.07V193.871H449.74V146.561H425.25Z" fill="#FF0032"></path> <path d="M525.44 132.08C545.56 132.08 557.67 137.87 559.32 154.29H542.94C541.55 146.57 535.62 144.72 525.43 144.72C514.54 144.72 506.87 147.53 506.87 160.17V167.1C506.87 179.39 514.28 182.46 525.51 182.46C535.18 182.46 541.28 180.7 543.02 173.51H559.4C557.48 189.13 545.46 195.1 525.43 195.1C503.48 195.1 490.5 187.46 490.5 163.68C490.5 139.9 503.48 132.08 525.43 132.08" fill="#FF0032"></path> <path d="M355.208 147.096V194H340.248V133.28H366.032L381.08 178.6L396.216 133.28H421.12V194H404.752V146.92L388.912 194H371.048L355.208 147.096ZM425.392 146.568V133.28H490.952V146.568H466.312V194H449.944V146.568H425.392ZM490.068 163.728C490.068 157.861 490.86 152.904 492.444 148.856C494.028 144.808 496.345 141.552 499.396 139.088C502.447 136.565 506.143 134.776 510.484 133.72C514.825 132.605 519.783 132.048 525.356 132.048C530.46 132.048 535.007 132.429 538.996 133.192C543.044 133.955 546.505 135.216 549.38 136.976C552.313 138.736 554.631 141.053 556.332 143.928C558.092 146.744 559.177 150.205 559.588 154.312H543.044C542.692 152.376 542.047 150.792 541.108 149.56C540.228 148.328 539.025 147.36 537.5 146.656C536.033 145.893 534.273 145.395 532.22 145.16C530.225 144.867 527.937 144.72 525.356 144.72C522.599 144.72 520.076 144.955 517.788 145.424C515.5 145.835 513.505 146.627 511.804 147.8C510.161 148.915 508.871 150.469 507.932 152.464C507.052 154.459 506.612 157.04 506.612 160.208V167.16C506.612 170.269 507.052 172.821 507.932 174.816C508.871 176.752 510.161 178.307 511.804 179.48C513.447 180.653 515.412 181.475 517.7 181.944C520.047 182.355 522.628 182.56 525.444 182.56C527.908 182.56 530.108 182.443 532.044 182.208C534.039 181.915 535.769 181.445 537.236 180.8C538.761 180.096 539.993 179.187 540.932 178.072C541.929 176.899 542.663 175.403 543.132 173.584H559.676C559.207 177.515 558.092 180.859 556.332 183.616C554.572 186.315 552.225 188.544 549.292 190.304C546.417 192.005 542.956 193.237 538.908 194C534.919 194.821 530.401 195.232 525.356 195.232C519.783 195.232 514.825 194.704 510.484 193.648C506.143 192.592 502.447 190.861 499.396 188.456C496.345 185.992 494.028 182.765 492.444 178.776C490.86 174.728 490.068 169.712 490.068 163.728ZM598.372 133.28V180.712H633.66V194H582.004V133.28H598.372ZM654.407 133.28V194H638.039V133.28H654.407ZM731.418 133.28L705.458 194H683.282L657.498 133.28H675.01L695.426 182.032L716.106 133.28H731.418ZM789.733 133.28V145.864H750.749V156.952H780.405V169.008H750.749V181.416H789.997V194H734.381V133.28H789.733Z" fill="#FF0032"></path> </svg>